<svg t="1722841365406" class="icon" viewBox="0 0 1024 1024" version="1.1" xmlns="http://www.w3.org/2000/svg" p-id="1147" width="48" height="48"><path d="M1022.332466 528.550636a39.205139 39.205139 0 0 1-77.557992-7.216019 415.68811 415.68811 0 0 0-207.446322-341.425622l-5.454628-3.125047 0.454552-0.965924a38.409672 38.409672 0 0 1-11.875179-27.670873 38.750587 38.750587 0 0 1 61.932755-30.909559 491.59835 491.59835 0 0 1 240.458185 402.506092l0.170457 8.806952h-0.681828z m-273.185953 367.846477a38.352853 38.352853 0 0 1-4.943257 68.239669 492.393817 492.393817 0 0 1-469.098009-1.363657h-5.454628l-0.056819-3.409143a38.750587 38.750587 0 0 1-9.659238-50.455309 38.864225 38.864225 0 0 1 24.602646-17.841179 39.091501 39.091501 0 0 1 29.261806 4.488704l3.522781 1.931848a414.722186 414.722186 0 0 0 395.233255-3.693238l7.045561-3.863695 0.625009 1.420476a38.977863 38.977863 0 0 1 28.920893 4.545524z m-233.980815-255.344774c-65.455536 0-118.694978-51.59169-118.694978-114.944922 0-63.410051 53.239442-114.944922 118.694978-114.944922s118.751797 51.534871 118.751798 114.944922c0 63.353232-53.296261 114.944922-118.751798 114.944922z m45.68251-455.915992a99.433323 99.433323 0 0 1-99.376504 0 98.808314 98.808314 0 0 1-49.262109-85.569477 98.921952 98.921952 0 1 1 148.638613 85.569477z m-269.492715-9.318323l-5.170533 3.125047A416.029024 416.029024 0 0 0 78.738638 520.652789a39.205139 39.205139 0 1 1-77.557992 6.931923H0.498817v-8.863771l0.113639-0.227276a492.052902 492.052902 0 0 1 241.140013-402.61973 38.750587 38.750587 0 0 1 61.250927 31.364111 38.068758 38.068758 0 0 1-11.988818 27.727692l0.340915 0.852286zM5.271617 519.175494l0.909105 0.56819 1.534114-0.170457-2.443219-0.397733z m109.831208 132.21791c54.54628 0 98.978771 44.262034 98.978771 98.581038a98.865133 98.865133 0 0 1-98.978771 98.524218 98.865133 98.865133 0 0 1-98.921952-98.524218 98.865133 98.865133 0 0 1 98.921952-98.581038z m742.397601 12.897923a98.921952 98.921952 0 1 1 0 171.252592 98.581038 98.581038 0 0 1-49.148472-85.626296 98.751495 98.751495 0 0 1 49.148472-85.626296z" fill="#666666" p-id="1148"></path></svg>